<?xml version="1.0" standalone="no"?>
<!DOCTYPE svg PUBLIC "-//W3C//DTD SVG 20010904//EN"
 "http://www.w3.org/TR/2001/REC-SVG-20010904/DTD/svg10.dtd">
<svg version="1.0" xmlns="http://www.w3.org/2000/svg"
 width="877.000000pt" height="817.000000pt" viewBox="0 0 877.000000 817.000000"
 preserveAspectRatio="xMidYMid meet">

<g transform="translate(0.000000,817.000000) scale(0.100000,-0.100000)"
fill="#000000" stroke="none">
<path d="M4167 7906 c-106 -44 -217 -125 -342 -251 -120 -120 -165 -185 -165
-239 0 -14 4 -26 9 -26 5 0 78 72 162 159 171 177 189 189 242 149 17 -14 43
-31 56 -37 28 -15 202 -51 213 -45 5 3 8 18 8 33 0 43 -70 117 -131 138 -55
20 -60 29 -23 43 51 20 101 11 188 -32 71 -35 87 -40 100 -29 41 34 -2 81
-121 131 -83 36 -120 37 -196 6z"/>
<path d="M4725 7878 c-126 -48 -435 -317 -435 -379 0 -31 21 -22 90 37 120
103 315 244 350 254 70 20 190 7 190 -19 0 -6 -31 -29 -69 -51 -38 -23 -77
-50 -86 -60 -17 -19 -17 -21 -1 -39 24 -27 138 -57 162 -43 11 6 33 36 49 68
17 32 35 59 41 61 5 2 31 -13 56 -32 81 -63 134 -44 92 33 -21 40 -139 121
-221 152 -67 26 -175 35 -218 18z"/>
<path d="M3438 7796 c-21 -7 -49 -21 -63 -30 -33 -22 -91 -110 -111 -168 -14
-44 -14 -52 1 -97 19 -57 44 -84 77 -79 25 3 25 4 12 124 -7 60 14 110 66 159
31 29 33 30 133 29 87 0 111 -4 162 -26 62 -27 75 -26 96 13 13 25 4 42 -34
64 -26 16 -55 20 -167 22 -97 2 -146 -1 -172 -11z"/>
<path d="M3025 7671 c-33 -9 -83 -29 -111 -44 -76 -39 -225 -141 -271 -185
-51 -50 -134 -196 -167 -292 -68 -203 -31 -478 74 -548 30 -20 45 -23 100 -20
41 2 82 12 112 26 66 32 153 124 191 201 28 57 32 75 32 146 0 67 -4 87 -25
125 -43 76 -183 152 -285 154 -45 1 -50 -1 -53 -22 -5 -34 12 -48 86 -73 101
-33 139 -55 172 -100 38 -53 48 -115 25 -163 -54 -113 -225 -234 -290 -204
-66 30 -137 265 -103 347 l13 33 33 -71 c19 -40 49 -86 68 -104 20 -18 48 -43
63 -57 15 -14 32 -34 39 -45 9 -16 13 -18 24 -7 21 21 18 191 -4 225 -16 24
-78 79 -167 149 l-34 26 34 66 c47 92 106 156 203 220 96 64 188 105 318 142
118 34 130 40 126 67 -3 20 -9 22 -73 24 -43 1 -93 -5 -130 -16z"/>
<path d="M5405 7676 c-60 -17 -209 -74 -308 -117 -148 -65 -199 -122 -119
-134 80 -12 86 -17 104 -75 9 -30 19 -67 22 -82 4 -15 20 -43 37 -63 25 -28
38 -35 68 -35 38 0 102 28 109 48 2 7 -48 64 -112 127 -64 64 -116 117 -116
119 0 2 40 22 89 45 159 73 265 89 414 62 59 -12 80 -12 89 -3 28 28 -95 107
-182 117 -25 2 -67 -2 -95 -9z"/>
<path d="M4613 7663 c-3 -9 3 -35 15 -57 29 -54 28 -62 -9 -70 -40 -8 -214
-90 -223 -105 -8 -13 66 -63 130 -87 57 -22 83 -14 149 46 30 28 59 50 63 50
11 0 97 -91 162 -170 l53 -65 -76 -7 c-86 -8 -190 -45 -195 -69 -4 -20 91 -80
155 -99 44 -13 59 -9 149 45 28 17 36 18 72 6 74 -25 92 4 45 74 -62 93 -453
525 -476 525 -4 0 -10 -7 -14 -17z"/>
<path d="M3390 7655 c-17 -20 -2 -38 55 -65 87 -42 84 -61 -26 -176 -78 -82
-93 -109 -64 -120 25 -10 160 82 204 139 53 70 62 95 46 133 -31 75 -176 135
-215 89z"/>
<path d="M3954 7599 c-4 -7 7 -22 24 -36 33 -25 34 -53 2 -53 -37 0 -230 -150
-230 -179 0 -14 58 -31 125 -38 74 -7 95 7 150 102 25 43 44 64 52 60 8 -2 82
-51 166 -109 138 -94 207 -136 222 -136 3 0 5 10 5 23 0 28 -36 63 -201 195
-205 163 -291 210 -315 171z"/>
<path d="M5755 7533 c-119 -18 -233 -66 -261 -108 -22 -33 -5 -74 46 -115 45
-35 65 -38 80 -9 10 17 7 28 -14 60 -35 52 -33 66 12 79 159 45 316 30 478
-45 112 -51 181 -104 294 -223 88 -93 109 -110 128 -106 68 18 -23 158 -194
294 -84 68 -195 125 -287 149 -79 21 -226 33 -282 24z"/>
<path d="M5285 7471 c-20 -33 152 -326 258 -438 50 -53 83 -66 93 -38 8 20
-31 84 -151 250 -56 77 -116 161 -134 188 -30 45 -53 58 -66 38z"/>
<path d="M2993 7450 c-143 -64 -91 -297 65 -294 56 1 142 36 142 59 0 18 -38
35 -78 35 -38 1 -108 35 -122 59 -16 31 3 58 50 71 90 24 157 -24 205 -149 28
-74 49 -89 64 -47 18 45 -25 164 -84 234 -45 53 -162 69 -242 32z"/>
<path d="M5760 7415 c-5 -14 -10 -33 -10 -41 0 -32 -23 -55 -94 -94 -90 -49
-114 -73 -96 -95 19 -23 46 -18 124 22 94 50 166 119 166 160 0 32 -21 56 -57
67 -19 6 -25 2 -33 -19z"/>
<path d="M4079 7313 c-30 -25 -100 -92 -157 -147 l-102 -101 -98 0 c-87 0
-103 -3 -151 -29 -62 -32 -132 -99 -179 -171 -39 -58 -38 -79 3 -83 74 -9 145
41 213 148 43 69 57 80 99 80 71 0 54 -48 -89 -252 -55 -79 -98 -151 -98 -164
0 -29 30 -39 75 -24 19 6 93 15 165 19 108 7 138 12 177 33 60 31 95 80 91
128 -3 33 -5 35 -43 38 -66 6 -99 -6 -160 -58 -60 -51 -114 -76 -141 -66 -12
5 -12 11 5 44 25 49 229 322 241 322 19 0 290 -334 290 -359 0 -4 -19 -37 -42
-72 -22 -35 -52 -87 -65 -116 -44 -96 -72 -343 -38 -343 8 0 29 21 46 48 18
26 52 69 75 95 53 59 82 134 92 237 l7 78 59 -44 c32 -25 64 -43 70 -41 42 14
-27 125 -198 317 -105 118 -180 187 -234 214 -32 16 -32 17 -17 46 17 34 52
60 78 60 10 0 42 -23 70 -50 29 -28 62 -53 75 -57 37 -9 93 4 120 29 20 19 52
75 52 92 0 15 -35 36 -60 36 -31 0 -160 37 -174 50 -5 6 2 24 18 45 15 20 25
43 22 50 -10 27 -43 16 -97 -32z"/>
<path d="M3523 7333 c-9 -22 54 -76 166 -143 92 -54 142 -63 149 -27 5 27 -31
61 -118 111 -130 76 -185 92 -197 59z"/>
<path d="M4729 7333 c-83 -57 -288 -231 -371 -315 -98 -98 -119 -131 -99 -151
19 -19 71 18 233 165 249 227 310 287 306 301 -7 19 -40 19 -69 0z"/>
<path d="M5994 7311 c-79 -19 -181 -94 -171 -125 6 -20 65 -18 113 3 26 12 70
24 99 27 44 6 55 3 79 -17 33 -29 38 -79 11 -109 -53 -59 -187 -38 -326 51
-99 63 -125 17 -31 -56 86 -67 210 -127 276 -133 46 -4 62 0 98 21 56 33 88
89 88 155 0 95 -41 152 -124 177 -54 16 -65 17 -112 6z"/>
<path d="M2219 7247 c-139 -53 -210 -116 -283 -248 -101 -185 -126 -392 -71
-586 17 -59 26 -68 54 -53 19 10 20 21 19 188 -1 191 13 312 43 361 12 20 31
33 58 41 47 12 70 5 140 -45 58 -42 174 -94 210 -95 21 0 23 3 17 32 -9 47
-42 110 -79 152 -34 40 -77 55 -157 56 -50 0 -76 12 -66 29 14 22 108 62 203
87 53 14 100 27 105 30 31 19 -33 84 -83 84 -13 -1 -63 -15 -110 -33z"/>
<path d="M3382 7171 c-48 -43 -107 -103 -132 -135 -60 -75 -63 -74 -75 16 -3
26 -14 57 -24 69 l-18 23 -28 -43 c-14 -24 -33 -62 -41 -84 -13 -37 -13 -47 7
-114 l22 -72 -83 -126 c-87 -133 -99 -158 -80 -170 24 -15 83 46 256 265 313
396 331 421 319 440 -13 21 -38 7 -123 -69z"/>
<path d="M5300 7106 c-162 -71 -356 -176 -406 -220 -23 -19 -25 -25 -15 -44 6
-12 17 -22 23 -22 21 0 449 234 486 266 36 31 38 54 4 54 -9 0 -51 -15 -92
-34z"/>
<path d="M4580 7042 c0 -10 14 -39 31 -65 35 -53 32 -67 -14 -67 -78 -1 -252
-84 -245 -118 4 -19 96 -68 142 -75 33 -5 65 8 132 54 65 44 86 46 128 9 42
-37 112 -147 156 -244 54 -118 72 -206 74 -351 1 -124 0 -133 -27 -186 -62
-121 -246 -331 -402 -456 -95 -76 -149 -107 -179 -99 -63 16 -257 172 -322
260 -97 129 -123 215 -124 404 0 169 35 288 140 472 56 97 73 150 50 150 -11
0 -70 -79 -129 -175 -104 -167 -276 -353 -382 -414 -76 -43 -173 -64 -272 -59
-125 7 -187 48 -187 123 0 52 56 279 115 463 47 150 55 202 31 202 -38 0 -126
-195 -187 -416 -64 -234 -106 -299 -220 -338 -75 -26 -94 -49 -62 -75 12 -10
93 -42 179 -72 329 -111 617 -286 790 -479 46 -52 74 -90 74 -104 0 -22 -158
3 -281 43 -340 114 -711 356 -790 517 -30 61 -32 183 -4 254 9 25 20 62 22 83
5 34 3 37 -20 37 -31 0 -69 -38 -98 -98 -36 -77 -39 -229 -5 -363 14 -57 39
-139 56 -182 16 -43 30 -83 30 -89 0 -13 -120 -7 -412 19 -177 15 -198 15
-375 -1 -225 -21 -309 -41 -422 -102 -143 -76 -228 -152 -214 -191 9 -26 52
-11 144 47 127 82 222 128 294 141 112 21 441 -11 734 -72 190 -40 486 -114
554 -139 47 -18 475 -294 580 -374 38 -29 67 -72 67 -100 0 -8 -27 -45 -60
-83 -37 -42 -60 -77 -60 -92 0 -13 18 -50 39 -83 63 -93 64 -154 8 -303 -19
-51 -14 -65 86 -216 80 -122 138 -230 170 -319 24 -69 36 -326 18 -383 -16
-46 -27 -55 -92 -67 -70 -14 -135 -54 -277 -173 -297 -248 -604 -402 -962
-481 -170 -37 -347 -48 -707 -44 -299 4 -322 5 -382 27 -127 45 -252 117 -404
236 -32 25 -63 45 -67 45 -5 0 -12 -9 -15 -21 -17 -52 155 -210 310 -284 154
-74 274 -94 750 -125 176 -12 355 -24 398 -28 l77 -7 -46 -69 c-100 -148 -110
-220 -26 -179 18 9 77 58 133 109 172 159 245 196 494 254 161 37 221 62 377
156 130 79 166 93 230 94 138 1 134 -74 -10 -212 -95 -90 -172 -142 -327 -218
-214 -106 -459 -181 -645 -199 -58 -6 -188 -13 -290 -16 -221 -7 -250 -11
-250 -35 0 -36 31 -47 151 -53 179 -9 335 -52 398 -110 13 -12 39 -55 57 -95
31 -67 56 -94 71 -78 3 3 9 55 13 115 9 164 27 176 260 176 l145 0 75 -40 c97
-52 124 -89 184 -251 90 -239 145 -336 342 -594 118 -156 197 -240 225 -240
33 0 22 32 -42 115 -144 188 -266 398 -335 575 -30 77 -38 113 -42 186 -5 105
7 153 69 274 125 243 380 439 571 440 67 0 67 0 140 -59 98 -79 279 -267 314
-327 23 -38 29 -62 32 -129 10 -192 -73 -421 -234 -645 -35 -49 -64 -98 -64
-108 0 -20 29 -52 47 -52 27 0 145 169 313 450 51 85 104 170 117 188 43 58
129 88 279 99 114 7 137 2 163 -41 18 -29 21 -49 21 -147 0 -121 -11 -180 -61
-339 -33 -108 -47 -194 -31 -204 20 -12 43 7 66 53 29 55 143 418 152 481 8
56 27 88 62 101 14 6 76 17 137 26 60 8 118 19 127 24 41 22 14 43 -86 69
-117 31 -538 185 -653 240 -119 56 -237 135 -289 192 -40 45 -84 131 -84 166
0 81 229 38 550 -104 259 -115 446 -232 569 -357 l63 -65 -4 -108 c-4 -91 -9
-119 -31 -168 -37 -80 -36 -96 6 -96 87 0 149 156 126 317 -5 37 -20 91 -34
120 -31 69 -160 257 -193 284 -22 17 -24 22 -12 30 18 12 306 5 394 -10 79
-14 220 -82 320 -154 101 -73 230 -138 287 -144 72 -8 247 61 384 152 60 40
78 64 69 90 -9 23 -46 13 -188 -52 -142 -65 -217 -82 -283 -65 -71 19 -151 61
-158 82 -9 27 -120 136 -180 176 -74 49 -141 69 -440 130 -462 93 -535 123
-687 276 -77 77 -121 113 -174 141 -127 66 -170 139 -235 393 -25 100 -57 196
-86 259 -127 278 -163 397 -163 542 0 151 43 256 143 350 60 56 69 61 124 67
177 20 167 14 201 122 42 134 154 264 309 356 111 66 155 81 384 132 268 59
327 66 540 66 207 0 267 -10 466 -75 163 -54 282 -109 393 -182 47 -31 101
-66 120 -79 20 -13 100 -85 179 -159 79 -75 152 -140 162 -146 19 -10 59 3 59
20 0 20 -68 107 -126 160 l-65 59 44 30 c46 32 113 107 164 182 37 56 43 73
33 91 -19 30 -64 -6 -163 -128 -73 -90 -102 -120 -116 -116 -10 2 -80 52 -157
109 -168 127 -212 152 -419 242 -280 121 -419 166 -620 202 -194 34 -265 49
-265 57 0 3 18 38 40 78 43 78 48 101 26 131 -14 18 -18 15 -94 -58 -119 -116
-155 -131 -499 -196 -122 -24 -193 -55 -287 -126 -83 -63 -199 -131 -257 -152
-77 -27 -89 22 -28 117 63 98 204 203 424 314 153 78 265 118 385 139 112 19
362 31 405 19 22 -6 41 -26 70 -72 68 -108 129 -184 163 -207 35 -24 122 -47
134 -36 11 11 -47 168 -77 208 -15 19 -38 40 -51 46 -33 15 -30 32 5 25 18 -4
36 0 47 8 18 14 18 16 -7 38 -22 20 -55 28 -199 51 -183 29 -311 61 -354 89
-14 10 -42 52 -66 103 -35 73 -44 85 -63 82 -20 -3 -23 -10 -28 -78 -9 -119
-46 -169 -143 -191 -30 -6 -90 -10 -137 -7 -103 6 -166 35 -230 106 -53 58
-136 205 -185 327 -99 246 -269 520 -412 662 -55 56 -102 72 -102 35z m-85
-2677 c-29 -171 -32 -312 -10 -400 9 -33 39 -112 66 -175 28 -63 66 -152 85
-197 39 -94 148 -442 141 -450 -15 -14 -107 150 -107 191 0 38 -44 148 -102
256 -119 220 -144 295 -155 456 -9 136 26 328 83 459 28 63 27 22 -1 -140z"/>
<path d="M6287 7001 c-32 -10 -86 -38 -121 -60 -54 -36 -75 -43 -140 -50 -87
-10 -209 -63 -214 -93 -2 -11 9 -25 30 -38 45 -28 95 -21 147 20 22 18 46 30
54 27 9 -3 16 -28 20 -69 8 -88 22 -128 68 -197 77 -115 206 -180 301 -151 58
17 110 73 131 141 9 30 22 108 28 174 11 108 10 123 -5 153 -34 65 -46 35 -64
-155 -12 -124 -44 -202 -94 -233 -56 -34 -108 -25 -108 19 0 26 21 63 95 165
38 53 44 90 20 136 -18 34 -73 70 -109 70 -33 0 -43 -21 -51 -110 -8 -75 -45
-202 -61 -207 -17 -6 -56 85 -62 140 -5 55 14 115 58 175 82 113 334 110 576
-8 104 -50 214 -139 214 -172 0 -9 20 -37 45 -63 68 -69 90 -51 60 51 -50 172
-360 337 -655 350 -85 3 -116 1 -163 -15z"/>
<path d="M5727 6971 c-9 -21 -19 -66 -23 -100 -7 -66 -18 -75 -50 -40 -10 12
-39 33 -64 47 -25 14 -78 45 -118 70 -88 53 -102 48 -77 -27 20 -61 92 -143
179 -206 88 -63 101 -80 136 -179 36 -101 56 -136 77 -136 12 0 13 12 6 78 -9
84 -11 349 -3 450 4 49 2 65 -10 72 -26 17 -37 11 -53 -29z"/>
<path d="M5175 6911 c-3 -16 -20 -51 -38 -77 -29 -46 -31 -55 -35 -164 -5
-150 20 -282 53 -283 16 0 73 113 90 178 10 39 13 77 8 114 -6 56 -6 56 14 38
22 -20 203 -369 222 -428 17 -55 30 -144 24 -168 -13 -50 -85 -31 -123 32 -26
42 -25 63 6 131 14 31 23 60 19 66 -9 15 -68 12 -92 -5 -12 -8 -29 -35 -38
-60 -37 -95 1 -197 92 -255 88 -56 143 -52 211 15 42 42 44 46 37 87 -19 118
-150 402 -290 628 -57 91 -129 180 -145 180 -5 0 -11 -13 -15 -29z"/>
<path d="M2009 6844 c-26 -32 -2 -48 162 -108 64 -23 127 -81 155 -140 46 -98
21 -103 -56 -13 -92 107 -141 136 -228 137 -60 0 -64 -19 -21 -100 42 -78 100
-125 202 -166 109 -42 117 -54 117 -167 0 -100 12 -132 46 -126 10 2 28 22 39
44 18 35 20 60 20 215 0 161 -2 178 -22 216 -46 85 -146 158 -280 203 -75 25
-116 27 -134 5z"/>
<path d="M1693 6810 c-147 -73 -403 -411 -403 -531 0 -88 61 -107 312 -95 310
14 653 67 666 104 7 22 -52 25 -167 8 -188 -26 -297 -20 -327 19 -7 10 -9 55
-6 135 5 114 4 122 -17 144 -28 30 -88 62 -97 53 -10 -10 -33 -151 -33 -205
-1 -25 10 -72 25 -108 14 -36 23 -68 19 -72 -10 -10 -149 -15 -199 -8 -24 4
-52 13 -62 20 -16 12 -16 18 -6 52 16 55 117 207 188 283 32 35 96 95 142 133
45 38 82 76 82 83 0 24 -52 18 -117 -15z"/>
<path d="M6646 6832 c-2 -4 14 -50 35 -102 36 -86 39 -102 37 -170 -2 -60 -9
-86 -30 -125 -68 -122 -99 -195 -105 -243 -8 -67 3 -71 109 -38 46 14 101 31
124 36 75 18 155 91 189 173 14 35 14 38 -2 44 -23 9 -132 -21 -209 -58 -36
-17 -70 -29 -76 -27 -7 3 7 24 30 50 158 171 455 125 669 -105 66 -71 118
-150 109 -166 -13 -20 -49 4 -85 58 -46 67 -105 122 -162 151 -55 29 -69 21
-69 -35 0 -59 22 -111 68 -158 48 -50 95 -73 189 -95 85 -19 112 -43 79 -68
-24 -17 -128 -18 -298 -3 -90 8 -123 8 -132 -1 -16 -16 26 -45 99 -67 47 -14
96 -18 225 -18 238 0 250 12 191 188 -48 140 -85 199 -183 291 -154 146 -259
186 -490 186 -76 0 -138 2 -138 4 0 2 7 23 15 47 35 98 17 172 -51 211 -37 21
-132 49 -138 40z"/>
<path d="M4684 6691 c-132 -96 -397 -430 -480 -604 -48 -103 -65 -238 -40
-328 19 -71 84 -201 104 -207 9 -3 12 17 12 78 0 54 9 118 25 185 15 61 26
139 28 196 3 77 8 105 30 153 30 66 133 199 149 194 6 -2 24 -42 40 -88 23
-66 31 -109 35 -192 3 -59 3 -117 0 -130 -4 -13 -38 -63 -77 -111 -80 -100
-93 -124 -126 -221 -39 -115 -12 -137 78 -63 80 65 166 172 210 262 39 79 40
81 35 170 -7 129 -66 288 -137 368 -16 19 -30 41 -30 49 0 7 33 46 73 86 l73
73 17 -100 c21 -127 43 -170 113 -221 51 -39 62 -52 79 -105 l6 -20 16 20 c11
15 14 40 11 105 -5 92 -14 116 -94 246 -29 47 -48 92 -55 130 -6 33 -13 69
-15 82 -6 30 -33 28 -80 -7z"/>
<path d="M5844 6645 c-8 -20 39 -118 134 -278 45 -74 107 -183 138 -241 41
-76 64 -108 80 -112 29 -7 44 2 44 28 0 44 -148 304 -302 531 -58 84 -82 103
-94 72z"/>
<path d="M3309 6515 c-54 -17 -88 -50 -71 -67 7 -7 66 -14 144 -18 140 -8 172
-15 201 -48 22 -24 17 -51 -19 -98 -21 -29 -108 -94 -125 -94 -16 0 -69 52
-69 68 0 9 11 27 24 41 33 35 42 74 21 91 -22 18 -59 -3 -98 -58 -56 -76 -43
-165 29 -199 30 -15 41 -15 82 -5 68 19 147 69 205 132 105 115 99 196 -18
246 -56 23 -244 29 -306 9z"/>
<path d="M2785 6460 c-121 -21 -232 -43 -248 -49 -39 -15 -46 -40 -16 -64 27
-22 40 -21 264 19 183 33 237 49 265 79 19 20 21 27 10 40 -16 20 -17 19 -275
-25z"/>
<path d="M7096 6381 c-19 -21 -139 -439 -131 -458 7 -19 29 -16 58 8 31 24 64
120 97 281 30 152 21 219 -24 169z"/>
<path d="M5623 6344 c-3 -9 4 -25 18 -40 19 -19 49 -29 129 -44 58 -11 127
-20 153 -20 41 0 48 3 45 18 -4 23 -88 67 -165 86 -84 21 -172 21 -180 0z"/>
<path d="M6227 6213 c-4 -3 -7 -17 -7 -29 0 -17 12 -28 54 -48 72 -34 332
-123 431 -147 122 -29 187 -23 156 15 -13 15 -7 13 -334 130 -220 80 -283 96
-300 79z"/>
<path d="M1970 6112 c0 -55 131 -280 203 -351 35 -33 35 -33 64 -16 44 26 90
102 108 177 16 73 13 98 -15 98 -26 0 -48 -25 -75 -85 -26 -61 -40 -72 -62
-53 -23 19 -84 104 -118 163 -37 65 -64 95 -87 95 -13 0 -18 -8 -18 -28z"/>
<path d="M2125 6132 c-38 -9 -48 -54 -16 -71 10 -6 97 -16 193 -22 95 -6 175
-13 177 -15 7 -7 -15 -65 -71 -186 -27 -59 -52 -123 -55 -143 -7 -42 -2 -43
97 -19 72 17 93 32 122 88 21 41 21 37 2 188 -5 39 -3 49 15 64 24 21 28 66 7
83 -27 22 -403 49 -471 33z"/>
<path d="M1595 6114 c-134 -10 -358 -37 -425 -50 -90 -19 -159 -54 -206 -106
-33 -36 -34 -41 -34 -115 0 -89 13 -122 90 -226 57 -76 92 -99 115 -76 13 13
9 27 -38 118 -47 94 -52 110 -52 169 0 63 1 67 33 88 59 40 340 89 575 101
108 5 127 4 127 -9 0 -27 -59 -226 -85 -283 -34 -78 -33 -85 13 -85 56 0 136
42 166 87 36 54 40 90 21 174 l-16 74 28 52 c26 50 27 53 10 70 -14 14 -38 18
-144 19 -71 1 -150 0 -178 -2z"/>
<path d="M6565 5946 c-15 -23 -15 -31 -1 -109 40 -213 93 -307 173 -307 68 0
173 82 173 137 0 36 -16 36 -80 1 -56 -31 -61 -32 -87 -18 -40 21 -73 96 -84
187 -14 113 -58 164 -94 109z"/>
<path d="M6714 5835 c-17 -42 16 -59 186 -95 58 -12 113 -26 123 -31 21 -12
22 -52 6 -160 -7 -42 -9 -88 -5 -103 10 -39 69 -100 153 -156 115 -77 142 -65
77 31 -58 86 -72 120 -83 203 -15 107 -14 156 3 156 19 0 283 -75 411 -117
149 -48 190 -71 259 -142 33 -33 63 -58 68 -55 4 3 8 28 8 55 0 46 -4 54 -47
100 -90 97 -204 135 -758 253 -377 81 -393 84 -401 61z"/>
<path d="M1219 5795 c-55 -20 -119 -55 -119 -64 0 -17 33 -21 180 -21 82 0
151 -4 155 -9 10 -17 -162 -133 -399 -272 -130 -76 -141 -123 -15 -69 103 43
349 173 441 232 113 73 169 160 120 187 -52 28 -301 39 -363 16z"/>
<path d="M863 5587 c-50 -48 -56 -59 -60 -103 -8 -77 45 -258 91 -311 19 -22
25 -24 44 -14 28 15 28 35 -4 137 -35 112 -32 202 10 262 19 28 26 47 21 61
-11 35 -43 24 -102 -32z"/>
<path d="M7325 5427 c-33 -25 -10 -64 99 -173 117 -116 181 -163 198 -146 19
19 0 56 -69 132 l-67 75 47 3 c27 2 85 -7 139 -22 247 -65 358 -138 343 -226
-17 -104 -17 -105 4 -124 39 -35 79 9 88 98 16 155 -66 231 -357 330 -174 59
-381 84 -425 53z"/>
<path d="M1193 5374 c-3 -8 7 -48 23 -87 23 -58 29 -87 28 -147 0 -68 -4 -82
-42 -153 -22 -43 -38 -85 -35 -93 18 -49 121 40 148 127 19 67 19 141 -1 210
-24 82 -77 159 -110 159 -3 0 -7 -7 -11 -16z"/>
<path d="M699 5236 c-26 -19 -54 -45 -63 -58 -25 -35 -21 -148 8 -230 44 -125
128 -251 155 -233 19 11 12 43 -33 153 -24 59 -49 135 -56 169 -12 70 -8 84
42 141 31 36 36 85 8 89 -8 2 -36 -13 -61 -31z"/>
<path d="M1055 5174 c-236 -134 -312 -202 -258 -233 21 -11 93 23 222 106 135
87 173 121 169 152 -2 14 -10 27 -18 29 -8 1 -60 -23 -115 -54z"/>
<path d="M7755 5019 c-10 -15 30 -54 110 -106 39 -26 74 -49 78 -53 5 -4 -29
-59 -76 -121 -134 -182 -142 -195 -129 -225 17 -37 39 -40 71 -10 40 38 152
229 166 281 l11 45 34 -18 c56 -28 74 -71 78 -189 3 -71 8 -106 18 -114 36
-30 64 30 64 139 0 70 -14 112 -54 159 -35 41 -206 170 -265 201 -47 24 -96
29 -106 11z"/>
<path d="M1000 4966 c0 -18 13 -73 29 -122 16 -49 34 -127 41 -174 21 -163 41
-196 75 -123 35 74 17 250 -35 354 -48 94 -110 131 -110 65z"/>
<path d="M7481 4821 c-10 -6 -15 -38 -19 -108 l-4 -98 176 -168 c155 -146 179
-166 196 -157 11 6 20 15 20 20 0 14 -46 67 -156 180 -56 58 -108 119 -116
135 -9 17 -21 64 -28 105 -16 96 -31 115 -69 91z"/>
<path d="M581 4780 c-72 -73 -111 -183 -111 -320 0 -109 20 -175 109 -355 105
-213 157 -283 182 -244 13 21 1 56 -52 150 -169 301 -192 490 -85 696 46 88
19 134 -43 73z"/>
<path d="M885 4703 c-79 -79 -137 -163 -160 -234 -11 -31 -17 -88 -18 -152 -2
-100 -1 -102 21 -105 43 -6 155 35 200 73 46 40 52 59 24 74 -13 7 -36 2 -87
-20 -38 -16 -76 -29 -83 -29 -18 0 -9 40 29 140 33 87 72 151 140 233 55 65
61 87 25 87 -16 0 -46 -22 -91 -67z"/>
<path d="M942 4613 c-7 -2 -17 -14 -23 -25 -9 -16 0 -41 54 -146 93 -182 100
-210 95 -351 -4 -97 -10 -131 -36 -207 -18 -50 -32 -106 -32 -123 0 -27 3 -32
21 -29 12 2 30 14 41 28 42 57 98 273 98 378 0 116 -64 295 -152 426 -34 51
-44 58 -66 49z"/>
<path d="M7933 4554 c-8 -23 8 -51 72 -124 129 -146 160 -225 152 -384 -5
-116 -32 -211 -77 -277 -33 -49 -37 -76 -16 -105 14 -19 15 -19 43 2 63 47
123 184 145 335 11 69 10 86 -10 163 -38 148 -127 293 -230 372 -49 37 -69 42
-79 18z"/>
<path d="M7963 4351 c-16 -10 -66 -64 -111 -120 -114 -142 -117 -147 -104
-176 7 -14 18 -25 26 -25 25 0 236 281 236 315 0 23 -15 25 -47 6z"/>
<path d="M7615 4282 c-14 -21 -31 -64 -37 -95 -11 -52 -10 -60 12 -107 45 -97
259 -270 333 -270 36 0 74 40 88 94 18 65 -6 221 -37 247 -16 13 -18 5 -38
-134 -8 -54 -16 -101 -19 -103 -7 -8 -85 33 -140 73 -51 38 -107 122 -107 162
0 14 5 51 12 82 9 46 9 61 -1 73 -21 25 -39 19 -66 -22z"/>
<path d="M880 4161 c-87 -29 -130 -53 -136 -77 -12 -49 23 -57 106 -24 58 23
90 26 90 8 0 -15 -33 -73 -152 -269 -89 -148 -102 -179 -80 -186 20 -8 78 61
175 207 140 210 165 281 115 327 -34 31 -57 34 -118 14z"/>
<path d="M525 3967 c-79 -83 -94 -197 -42 -311 53 -115 184 -286 220 -286 19
0 47 26 47 44 0 7 -23 41 -50 75 -61 76 -141 236 -147 296 -5 35 0 54 27 103
24 42 31 66 27 84 -11 44 -36 43 -82 -5z"/>
<path d="M7580 3865 c-18 -26 -35 -68 -41 -102 -14 -73 -4 -215 20 -291 24
-76 161 -403 177 -421 7 -8 20 -10 34 -6 19 6 22 12 17 44 -2 20 -31 104 -64
186 -33 83 -68 175 -78 205 -20 61 -24 181 -11 338 9 109 -4 120 -54 47z"/>
<path d="M896 3741 c-9 -14 3 -39 47 -105 55 -82 77 -151 84 -267 3 -55 10
-102 15 -105 18 -11 47 8 57 38 17 49 13 169 -8 237 -36 117 -166 250 -195
202z"/>
<path d="M7707 3735 c-10 -9 -15 -26 -13 -38 34 -165 62 -223 104 -215 18 4
18 5 6 121 l-7 67 30 0 c39 0 137 -49 192 -97 48 -41 101 -139 101 -187 0 -16
-16 -58 -36 -94 -38 -70 -42 -117 -11 -136 27 -17 48 3 90 86 72 144 61 235
-43 337 -99 96 -216 155 -338 167 -47 5 -61 3 -75 -11z"/>
<path d="M862 3557 c-26 -27 -104 -193 -133 -281 -34 -104 -5 -157 44 -78 51
81 147 316 147 358 0 31 -29 32 -58 1z"/>
<path d="M7910 3503 c-39 -27 -126 -105 -150 -135 -27 -35 -19 -68 16 -68 33
0 97 44 162 114 51 54 53 58 39 79 -19 29 -36 31 -67 10z"/>
<path d="M518 3433 c-46 -52 -61 -132 -36 -190 24 -56 83 -126 167 -199 84
-73 175 -129 192 -118 27 16 0 55 -124 183 -74 75 -141 147 -150 161 -21 30
-22 76 -2 113 26 50 -12 89 -47 50z"/>
<path d="M874 3317 c-8 -23 7 -45 110 -162 104 -118 154 -202 164 -273 7 -42
10 -47 36 -50 37 -5 46 10 46 81 0 103 -37 159 -194 297 -121 106 -154 128
-162 107z"/>
<path d="M7866 3281 c-9 -14 9 -54 48 -109 56 -77 86 -153 93 -230 7 -84 -6
-127 -60 -204 -45 -64 -44 -88 4 -88 23 0 40 9 65 37 53 58 77 132 78 238 1
102 -8 130 -68 220 -77 114 -140 168 -160 136z"/>
<path d="M7576 3148 c-89 -104 -108 -221 -62 -392 15 -55 31 -105 37 -113 12
-14 65 -18 73 -5 2 4 -12 78 -32 164 l-36 158 48 100 c27 55 46 106 42 115 -9
26 -33 17 -70 -27z"/>
<path d="M946 3068 c-40 -63 -70 -267 -55 -375 15 -109 58 -183 106 -183 28 0
96 60 113 100 25 60 -15 80 -68 35 -54 -45 -62 -33 -69 106 -4 68 -1 116 11
167 19 84 21 143 4 160 -17 17 -26 15 -42 -10z"/>
<path d="M7876 3061 c-3 -5 -53 -41 -111 -81 -113 -77 -141 -106 -130 -140 9
-28 29 -23 119 27 138 77 226 168 186 193 -19 12 -57 13 -64 1z"/>
<path d="M639 2943 c-19 -23 -17 -180 5 -263 40 -157 132 -288 239 -338 120
-57 292 -101 498 -127 68 -9 216 -34 329 -56 218 -42 257 -45 274 -16 22 37
-43 58 -399 128 -319 63 -588 143 -668 198 -61 42 -131 122 -162 185 -16 33
-29 82 -35 134 -9 81 -40 172 -58 172 -5 0 -16 -7 -23 -17z"/>
<path d="M7807 2844 c-4 -4 -7 -56 -7 -115 0 -336 -70 -568 -189 -629 -84 -42
-482 -132 -671 -152 -58 -6 -111 -12 -117 -14 -19 -5 -16 -40 4 -60 22 -22 89
-16 375 31 226 37 376 73 445 106 87 42 158 156 187 299 35 177 47 430 23 500
-11 33 -35 49 -50 34z"/>
<path d="M7392 2676 c-55 -60 -74 -100 -79 -171 -4 -45 0 -73 16 -115 31 -82
103 -199 152 -248 l44 -43 23 28 c61 72 129 260 104 285 -21 21 -56 -8 -96
-81 -22 -39 -45 -71 -51 -71 -18 0 -42 31 -66 85 -28 62 -33 185 -9 226 53 94
52 90 40 120 -7 16 -18 29 -25 29 -7 0 -31 -20 -53 -44z"/>
<path d="M7613 2571 c-103 -41 -163 -78 -163 -101 0 -46 91 -30 233 42 62 31
77 49 57 73 -18 21 -45 18 -127 -14z"/>
<path d="M1893 2401 c-28 -9 -70 -30 -93 -45 -34 -22 -41 -32 -38 -54 4 -37
29 -39 98 -8 124 56 162 24 175 -151 8 -103 23 -135 52 -117 15 9 20 32 27
120 10 133 1 175 -52 232 -33 36 -45 42 -78 42 -21 -1 -62 -9 -91 -19z"/>
<path d="M4426 2290 c-41 -45 -56 -69 -56 -90 0 -42 30 -56 63 -30 35 28 44
25 67 -20 68 -132 65 -319 -6 -465 -52 -106 -178 -233 -339 -342 -82 -56 -133
-109 -117 -125 14 -14 75 7 180 63 185 98 334 259 394 425 27 74 35 213 18
308 -26 149 -96 327 -131 334 -9 2 -41 -24 -73 -58z"/>
<path d="M4164 2310 c-33 -13 -123 -118 -155 -181 -59 -118 -75 -264 -43 -399
19 -83 93 -235 134 -277 37 -38 74 -43 90 -13 13 23 3 44 -45 105 -76 94 -109
199 -103 330 3 82 8 101 41 167 20 41 54 95 76 119 l39 44 31 -29 c54 -52 131
-231 131 -307 0 -48 -37 -139 -56 -139 -7 0 -21 11 -30 25 -17 26 -16 99 2
242 5 44 4 54 -10 59 -20 8 -35 -10 -72 -80 -48 -90 -41 -194 21 -316 35 -70
47 -76 89 -50 73 45 132 146 142 247 5 49 2 69 -23 134 -56 143 -183 330 -224
328 -8 0 -23 -4 -35 -9z"/>
<path d="M6383 2242 c-49 -45 -66 -88 -61 -150 3 -38 11 -59 23 -68 23 -17 39
-6 66 47 10 21 23 40 29 44 16 10 124 -99 202 -202 38 -51 74 -93 79 -93 41 0
9 106 -69 225 -73 112 -115 161 -171 197 -55 35 -62 35 -98 0z"/>
<path d="M1679 2117 c-48 -32 -115 -136 -128 -199 -19 -84 -35 -252 -27 -281
8 -34 43 -36 56 -4 5 12 14 55 20 96 13 93 50 203 101 304 21 42 39 81 39 86
0 20 -31 19 -61 -2z"/>
<path d="M1071 2096 c-40 -48 -16 -137 72 -268 99 -150 227 -272 344 -332 203
-102 476 -57 552 93 20 38 36 112 47 215 l6 58 76 -4 c43 -3 121 -15 175 -28
111 -27 126 -23 99 30 l-17 35 -220 47 c-252 54 -435 84 -459 75 -27 -11 -19
-45 15 -63 18 -9 84 -27 147 -40 63 -13 117 -26 120 -28 7 -8 -57 -196 -83
-240 -14 -23 -35 -52 -47 -63 -29 -27 -114 -43 -234 -44 -85 -2 -96 1 -152 31
-110 58 -270 238 -313 350 -32 85 -41 80 154 80 160 0 175 2 192 20 21 23 14
47 -18 59 -78 30 -435 43 -456 17z"/>
<path d="M2450 1972 c0 -26 204 -435 256 -514 40 -59 68 -88 88 -88 3 0 6 15
6 34 0 21 -15 62 -40 108 -23 40 -84 161 -137 268 -53 107 -101 198 -107 202
-6 4 -23 8 -38 8 -20 0 -28 -5 -28 -18z"/>
<path d="M3114 1941 c-59 -25 -69 -101 -29 -208 36 -95 202 -416 268 -517 60
-92 128 -166 152 -166 22 0 19 47 -9 105 -12 28 -81 145 -153 260 -181 292
-197 327 -174 388 9 24 16 27 53 27 54 0 121 -30 143 -64 21 -31 15 -41 -33
-56 -53 -17 -82 -38 -82 -59 0 -43 194 -42 222 2 4 7 8 37 8 68 0 124 -107
209 -284 224 -33 3 -71 1 -82 -4z"/>
<path d="M6163 1933 c-7 -2 -13 -22 -13 -43 0 -38 0 -39 47 -46 51 -8 307 2
363 14 30 7 35 12 35 37 0 28 -3 30 -45 37 -52 8 -369 9 -387 1z"/>
<path d="M5183 1860 c-125 -44 -183 -125 -153 -214 33 -100 249 -202 344 -162
76 32 35 63 -122 94 -57 12 -115 28 -128 37 -71 46 27 181 126 173 47 -4 50
-29 10 -74 -21 -25 -30 -44 -28 -62 8 -66 110 -15 150 75 17 39 17 45 3 80
-29 72 -100 90 -202 53z"/>
<path d="M6975 1794 c-60 -6 -180 -17 -265 -23 -186 -14 -268 -31 -293 -62
-33 -41 -20 -44 161 -41 111 1 172 -1 172 -8 0 -5 -4 -10 -9 -10 -21 0 -21
-42 -2 -106 30 -94 28 -217 -3 -305 -50 -143 -146 -244 -310 -326 -116 -58
-146 -79 -146 -104 0 -28 23 -33 91 -19 161 34 338 170 413 318 44 86 59 171
53 302 -4 89 -10 131 -30 187 -19 54 -23 75 -14 80 19 13 488 16 500 4 7 -7 1
-23 -19 -52 -41 -60 -279 -299 -336 -337 -54 -37 -72 -64 -63 -93 18 -57 153
28 336 211 145 146 179 197 187 282 6 62 -20 95 -82 102 -90 11 -237 11 -341
0z"/>
<path d="M6294 1748 c-36 -70 -27 -233 21 -373 30 -86 78 -135 188 -188 86
-42 134 -50 150 -25 20 30 -6 65 -61 81 -163 49 -207 115 -223 331 -15 201
-36 249 -75 174z"/>
<path d="M2693 1724 c-10 -25 26 -50 116 -78 152 -48 251 -53 259 -13 5 27
-38 45 -168 73 -182 38 -199 40 -207 18z"/>
<path d="M6129 1645 c-3 -2 -90 -18 -195 -35 -104 -16 -219 -35 -257 -41 -107
-17 -147 -69 -54 -69 54 0 481 56 525 69 36 11 62 28 62 42 0 25 -64 52 -81
34z"/>
<path d="M2272 1595 c-23 -7 -54 -20 -67 -29 -72 -47 -106 -250 -64 -383 12
-37 30 -47 56 -28 15 11 19 33 24 147 8 181 29 218 123 218 88 0 178 -58 220
-142 45 -90 33 -153 -43 -221 -59 -53 -129 -71 -260 -65 -134 7 -247 36 -378
98 -81 38 -118 64 -183 125 -98 91 -124 106 -147 83 -10 -11 -13 -25 -10 -41
11 -40 173 -188 252 -228 123 -64 352 -129 448 -129 63 1 190 26 233 46 58 27
147 121 169 176 17 47 17 48 -10 135 -43 138 -90 205 -167 237 -45 19 -137 20
-196 1z"/>
<path d="M2842 1561 c-11 -7 -11 -36 2 -172 8 -90 18 -202 22 -249 9 -109 17
-132 47 -128 l22 3 -2 208 c-2 193 -13 312 -31 328 -14 13 -47 19 -60 10z"/>
<path d="M5749 1448 c-158 -115 -594 -599 -587 -653 5 -37 40 -28 103 25 101
86 109 85 117 -11 6 -71 64 -198 105 -227 44 -31 146 -62 205 -62 89 0 158 61
158 141 0 78 -105 165 -214 176 -65 7 -129 -11 -124 -35 3 -13 20 -19 78 -24
89 -9 124 -22 145 -54 20 -31 19 -50 -5 -74 -27 -27 -92 -26 -155 4 -63 29
-78 51 -109 161 -13 48 -34 100 -45 116 l-21 28 40 52 c22 29 103 122 181 206
159 172 198 220 199 246 0 25 -22 21 -71 -15z"/>
<path d="M5074 1408 c-37 -52 -237 -302 -449 -563 -103 -127 -120 -160 -90
-171 37 -15 148 93 341 331 269 332 339 455 259 455 -17 0 -34 -15 -61 -52z"/>
<path d="M5950 1373 c-37 -22 -108 -80 -166 -138 -116 -114 -137 -154 -115
-224 24 -82 199 -235 305 -266 l51 -16 28 31 c34 39 27 52 -44 75 -121 40
-249 163 -249 239 0 47 89 125 217 190 64 32 84 33 110 4 50 -55 57 -84 55
-233 -3 -219 -25 -279 -144 -396 -131 -129 -268 -199 -505 -259 -60 -15 -81
-67 -36 -84 38 -15 252 43 358 97 216 108 369 284 416 477 28 116 4 336 -46
429 -33 59 -97 111 -140 111 -17 0 -58 -16 -95 -37z"/>
<path d="M4320 1282 c0 -24 73 -112 171 -207 82 -79 116 -105 132 -103 33 5
33 40 0 79 -59 69 -257 239 -280 239 -13 0 -23 -4 -23 -8z"/>
<path d="M3001 1122 c-24 -46 39 -158 245 -432 124 -165 166 -207 194 -190 22
13 0 51 -152 260 -74 102 -157 219 -186 260 -29 41 -60 86 -71 99 l-19 24 -11
-21z"/>
<path d="M3801 1094 c-97 -25 -551 -219 -551 -235 0 -13 36 -29 63 -29 66 0
403 141 509 213 79 53 71 74 -21 51z"/>
<path d="M4238 988 c-220 -202 -318 -303 -318 -326 0 -66 114 13 343 238 124
121 138 139 135 165 -6 53 -31 41 -160 -77z"/>
<path d="M2601 1005 c-59 -17 -114 -53 -132 -87 -6 -11 -9 -43 -7 -70 10 -95
108 -173 217 -173 69 1 154 43 188 94 27 40 28 45 8 65 -19 18 -38 13 -85 -24
-61 -47 -100 -63 -142 -57 -109 15 -132 109 -38 158 74 40 196 20 304 -49 51
-33 80 -40 91 -22 13 21 -8 51 -62 90 -106 76 -236 104 -342 75z"/>
<path d="M2144 924 c-23 -90 188 -309 395 -414 106 -53 171 -64 349 -58 120 5
157 10 202 27 106 43 125 88 70 175 -26 40 -35 47 -58 44 -26 -3 -27 -6 -27
-57 0 -53 -1 -56 -43 -85 l-44 -31 -146 0 -147 0 -78 37 c-44 21 -107 57 -140
82 -63 45 -227 208 -227 225 0 19 -62 81 -81 81 -12 0 -21 -10 -25 -26z"/>
<path d="M3625 879 c-5 -14 4 -37 29 -75 78 -117 368 -444 394 -444 21 0 13
31 -25 87 -47 71 -271 366 -316 416 -38 41 -72 48 -82 16z"/>
<path d="M4844 885 c-10 -24 21 -62 92 -114 142 -104 204 -130 204 -86 0 37
-225 215 -271 215 -11 0 -22 -7 -25 -15z"/>
<path d="M4241 801 c-15 -27 21 -72 164 -209 153 -147 215 -194 251 -190 15 2
29 8 31 14 8 24 -119 151 -309 310 -112 93 -124 100 -137 75z"/>
<path d="M2994 789 c-22 -11 -58 -38 -79 -59 -36 -37 -39 -44 -39 -95 1 -61
15 -85 49 -85 25 0 35 17 35 56 0 39 38 104 72 122 61 34 80 53 67 68 -16 19
-56 17 -105 -7z"/>
<path d="M5291 719 c-75 -30 -221 -161 -256 -228 -22 -43 -6 -83 46 -118 46
-30 119 -42 136 -21 15 17 8 27 -44 61 -68 44 -57 72 65 166 42 32 88 70 100
84 42 45 13 81 -47 56z"/>
<path d="M4990 622 c-8 -3 -52 -40 -97 -83 -103 -97 -272 -225 -338 -255 -59
-28 -159 -32 -242 -10 -61 16 -87 5 -81 -35 5 -38 83 -71 179 -77 75 -4 80 -3
161 37 46 22 126 71 178 108 121 87 303 263 299 288 -4 20 -36 35 -59 27z"/>
<path d="M3570 510 c-208 -100 -291 -124 -417 -116 -54 4 -102 2 -118 -4 l-28
-11 24 -26 c67 -72 179 -84 330 -33 111 37 366 160 404 196 25 23 26 27 12 47
-8 12 -21 23 -28 25 -8 1 -88 -34 -179 -78z"/>
<path d="M5318 573 c-1 -5 -2 -51 -2 -104 -1 -82 -4 -100 -21 -119 -54 -61
-158 -74 -342 -43 -84 14 -105 15 -115 4 -20 -20 44 -68 122 -92 81 -26 210
-35 268 -20 85 23 142 101 161 217 11 71 1 129 -26 149 -20 16 -42 19 -45 8z"/>
<path d="M4325 492 c-27 -16 -90 -55 -139 -87 -153 -100 -289 -143 -392 -124
-24 5 -75 25 -114 45 -49 26 -74 34 -81 27 -23 -23 42 -99 121 -144 18 -10 61
-14 150 -14 117 0 129 2 182 28 111 54 307 208 341 266 17 30 17 31 0 31 -10
0 -40 -13 -68 -28z"/>
</g>
</svg>
